<?xml version="1.0" encoding="utf-8"?>
<!-- Generator: Adobe Illustrator 16.0.0, SVG Export Plug-In . SVG Version: 6.00 Build 0)  -->
<!DOCTYPE svg PUBLIC "-//W3C//DTD SVG 1.1//EN" "http://www.w3.org/Graphics/SVG/1.1/DTD/svg11.dtd">
<svg version="1.1" id="Calque_1" xmlns="http://www.w3.org/2000/svg" xmlns:xlink="http://www.w3.org/1999/xlink" x="0px" y="0px"
	 width="283.46px" height="283.46px" viewBox="0 0 283.46 283.46" enable-background="new 0 0 283.46 283.46" xml:space="preserve">
<path fill="#FFFFFF" d="M280.46,141.906h-40.527c0.016-17.178-4.486-34.581-13.975-50.382c-4.536-7.553-9.934-14.267-15.985-20.105
	L142.055,3.5v40.528c-17.179-0.017-34.582,4.487-50.382,13.974C84.117,62.54,77.4,67.939,71.56,73.994L3.648,141.906h40.528
	c-0.017,17.178,4.486,34.58,13.974,50.381c4.539,7.557,9.938,14.274,15.994,20.115l67.91,67.909v-40.527
	c17.178,0.016,34.579-4.486,50.381-13.975c7.553-4.536,14.27-9.935,20.108-15.987L280.46,141.906z"/>
</svg>
